<svg xmlns="http://www.w3.org/2000/svg" width="24.101" height="20.698" viewBox="0 0 24.101 20.698">
  <path id="Icon_metro-calendar" data-name="Icon metro-calendar" d="M10.6,9.69h3.213v2.587H10.6Zm4.82,0h3.213v2.587H15.425Zm4.82,0h3.213v2.587H20.245ZM5.784,17.452H9v2.587H5.784Zm4.82,0h3.213v2.587H10.6Zm4.82,0h3.213v2.587H15.425ZM10.6,13.571h3.213v2.587H10.6Zm4.82,0h3.213v2.587H15.425Zm4.82,0h3.213v2.587H20.245Zm-14.461,0H9v2.587H5.784ZM23.458,1.928V3.222H20.245V1.928H9V3.222H5.784V1.928H2.571v20.7h24.1V1.928H23.458Zm1.607,19.4H4.177V7.1H25.065Z" transform="translate(-2.571 -1.928)" fill="#fff"/>
</svg>
