<svg id="Icon_feather-help-circle" data-name="Icon feather-help-circle" xmlns="http://www.w3.org/2000/svg" width="18.332" height="18.332" viewBox="0 0 18.332 18.332">
  <path id="パス_286" data-name="パス 286" d="M10,.833A9.166,9.166,0,1,1,.833,10,9.176,9.176,0,0,1,10,.833ZM10,17.2A7.2,7.2,0,1,0,2.8,10,7.208,7.208,0,0,0,10,17.2Z" transform="translate(-0.833 -0.833)" fill="#fb78a4"/>
  <path id="パス_287" data-name="パス 287" d="M10.04,11.876A.983.983,0,0,1,9.729,9.96c.557-.189,1.783-.837,1.783-1.523a1.472,1.472,0,0,0-2.861-.492A.983.983,0,1,1,6.8,7.293a3.438,3.438,0,0,1,6.681,1.146A3.18,3.18,0,0,1,11.813,11.1a6.7,6.7,0,0,1-1.462.728A.982.982,0,0,1,10.04,11.876Z" transform="translate(-0.94 -0.908)" fill="#fb78a4"/>
  <circle id="Ellipse_276" data-name="Ellipse 276" cx="0.884" cy="0.884" r="0.884" transform="translate(8.281 12.2)" fill="#fb78a4"/>
</svg>
