<svg xmlns="http://www.w3.org/2000/svg" width="18.839" height="13.188" viewBox="0 0 18.839 13.188">
  <path id="Icon_awesome-user-friends" data-name="Icon awesome-user-friends" d="M5.652,8.094a3.3,3.3,0,1,0-3.3-3.3A3.3,3.3,0,0,0,5.652,8.094Zm2.261.942H7.668a4.552,4.552,0,0,1-4.033,0H3.391A3.392,3.392,0,0,0,0,12.427v.848a1.413,1.413,0,0,0,1.413,1.413H9.891A1.413,1.413,0,0,0,11.3,13.275v-.848A3.392,3.392,0,0,0,7.913,9.036Zm6.217-.942A2.826,2.826,0,1,0,11.3,5.268,2.827,2.827,0,0,0,14.129,8.094Zm1.413.942h-.112a3.712,3.712,0,0,1-2.6,0h-.112a3.269,3.269,0,0,0-1.64.453,4.308,4.308,0,0,1,1.169,2.938v1.13c0,.065-.015.127-.018.188h5.2a1.413,1.413,0,0,0,1.413-1.413,3.3,3.3,0,0,0-3.3-3.3Z" transform="translate(0 -1.5)" fill="#fda4c2"/>
</svg>
