<svg xmlns="http://www.w3.org/2000/svg" width="16.588" height="13.845" viewBox="0 0 16.588 13.845">
  <g id="Icon_feather-repeat" data-name="Icon feather-repeat" transform="translate(0 13.845) rotate(-90)">
    <path id="パス_288" data-name="パス 288" d="M.75,6.987a.75.75,0,0,1-.53-1.28L2.433,3.493.22,1.28A.75.75,0,0,1,1.28.22L4.024,2.963a.75.75,0,0,1,0,1.061L1.28,6.767A.748.748,0,0,1,.75,6.987Z" transform="translate(9.601)" fill="#dedede"/>
    <path id="パス_289" data-name="パス 289" d="M.75,5.615A.75.75,0,0,1,0,4.865V3.493A3.493,3.493,0,0,1,3.493,0h9.6a.75.75,0,0,1,0,1.5h-9.6A1.993,1.993,0,0,0,1.5,3.493V4.865A.75.75,0,0,1,.75,5.615Z" transform="translate(0 2.743)" fill="#dedede"/>
    <path id="パス_290" data-name="パス 290" d="M3.493,6.987a.748.748,0,0,1-.53-.22L.22,4.024a.75.75,0,0,1,0-1.061L2.963.22A.75.75,0,0,1,4.024,1.28L1.811,3.493,4.024,5.706a.75.75,0,0,1-.53,1.28Z" transform="translate(0 9.601)" fill="#dedede"/>
    <path id="パス_291" data-name="パス 291" d="M10.351,5.615H.75a.75.75,0,0,1,0-1.5h9.6a2,2,0,0,0,1.993-1.993V.75a.75.75,0,0,1,1.5,0V2.122A3.5,3.5,0,0,1,10.351,5.615Z" transform="translate(0 8.23)" fill="#dedede"/>
  </g>
</svg>
