<svg xmlns="http://www.w3.org/2000/svg" width="15.774" height="17.432" viewBox="0 0 15.774 17.432">
  <g id="Group_350" data-name="Group 350" transform="translate(-3236.226 -1772.142)">
    <path id="Path_327" data-name="Path 327" d="M66.864,15.315a2.135,2.135,0,0,0-.335-.541c-.191-.235-.4-.438-.546-.6a1.774,1.774,0,0,1-.143-.168c0-.052-.008-.106-.015-.173-.039-.353-.131-.991-.23-1.725s-.205-1.558-.268-2.255A4.973,4.973,0,0,0,62.779,6.05l-.136-.143h.682l2.886-2.12a.5.5,0,0,0,.079-.765.67.67,0,0,0-.865-.07L62.881,4.82h-.4c.141-.228.324-.529.509-.857.193-.343.387-.712.539-1.059a4.536,4.536,0,0,0,.191-.5,1.734,1.734,0,0,0,.085-.49.847.847,0,0,0-.051-.3l-.047-.124L63.6,1.394a3.183,3.183,0,0,0-1.4-.645A7.062,7.062,0,0,0,60.688.6a9.985,9.985,0,0,0-1.206.074l-.3-.635L58.807.015C58.655,0,58.507,0,58.364,0a5.667,5.667,0,0,0-3.027.83,4.159,4.159,0,0,0-1.026.864l-.195.247,1.392,2.881a.577.577,0,0,0-.589.541.577.577,0,0,0,.587.54c-.042.041-.087.084-.142.129a4.979,4.979,0,0,0-2.576,3.823c-.072.8-.2,1.76-.31,2.563-.055.4-.106.764-.143,1.049-.019.143-.034.266-.045.368-.007.068-.012.121-.015.174a2.715,2.715,0,0,1-.2.232,7.751,7.751,0,0,0-.538.6,2.138,2.138,0,0,0-.244.386,1.147,1.147,0,0,0-.121.494,1.507,1.507,0,0,0,.691,1.229,3.17,3.17,0,0,0,1.833.484H64.421a3.171,3.171,0,0,0,1.833-.484,1.508,1.508,0,0,0,.691-1.229A1.091,1.091,0,0,0,66.864,15.315ZM56.093,1.689a4.334,4.334,0,0,1,2.253-.6l.713,1.507a.645.645,0,0,0,.8.292.523.523,0,0,0,.33-.711l-.071-.149a.5.5,0,0,0-.043-.17l-.067-.141c.212-.016.442-.028.677-.028A5.682,5.682,0,0,1,61.9,1.8a2.331,2.331,0,0,1,.652.239c-.005.023-.013.049-.022.077a5.072,5.072,0,0,1-.315.743c-.212.425-.48.886-.692,1.235-.107.176-.2.323-.266.427l-.076.12-.027.041h0a1.4,1.4,0,0,0-.087.134H56.85a1.977,1.977,0,0,0-.094-.18L55.53,2.1A3.686,3.686,0,0,1,56.093,1.689ZM65.49,16.1a1.863,1.863,0,0,1-1.069.248H53.7a1.863,1.863,0,0,1-1.069-.248.457.457,0,0,1-.227-.378V15.71a.716.716,0,0,1,.131-.233,7.267,7.267,0,0,1,.514-.57,3.064,3.064,0,0,0,.27-.317,1.233,1.233,0,0,0,.118-.2.712.712,0,0,0,.067-.3s0-.068.013-.155c.034-.317.128-.963.227-1.7s.206-1.573.272-2.3A3.916,3.916,0,0,1,56.08,6.917l.045-.025.039-.03a2.471,2.471,0,0,0,.622-.691,1.534,1.534,0,0,0,.119-.263h4.24a2.779,2.779,0,0,0,.237.337c.143.174.314.357.516.566l.06.063.079.044A3.916,3.916,0,0,1,64.1,9.943c.075.827.2,1.8.315,2.607.055.4.105.765.141,1.043.019.139.033.257.043.347s.014.155.013.155a.773.773,0,0,0,.116.388,2.42,2.42,0,0,0,.327.411c.174.186.363.373.493.538a1.265,1.265,0,0,1,.138.209.339.339,0,0,1,.025.061l0,.014v0A.458.458,0,0,1,65.49,16.1Z" transform="translate(3185.055 1772.142)" fill="#fb78a4"/>
    <path id="Path_328" data-name="Path 328" d="M384.471,155.106l-1.358-.731-1.019.847,1.794.966a.614.614,0,1,0,.582-1.082Z" transform="translate(2866.874 1622.95)" fill="#fb78a4"/>
    <path id="Path_329" data-name="Path 329" d="M193.842,286.664h-1.787l-.192.3v.715h1.979v1.016h-1.979v1.532h-1.229v-1.532h-1.979v-1.016h1.979v-.714l-.192-.3h-1.787V285.8h1.229l-1.044-1.625h1.041l1.367,2.127,1.368-2.127h1.041l-1.043,1.625h1.228Z" transform="translate(3052.864 1496.629)" fill="#fb78a4"/>
  </g>
</svg>
