<svg xmlns="http://www.w3.org/2000/svg" width="16.932" height="16.931" viewBox="0 0 16.932 16.931">
  <path id="Icon_ionic-md-settings" data-name="Icon ionic-md-settings" d="M16.77,11.187a5.294,5.294,0,0,0,.043-.847c0-.3-.043-.55-.043-.847l1.818-1.4a.389.389,0,0,0,.087-.55L16.943,4.626a.422.422,0,0,0-.52-.169L14.259,5.3a6.3,6.3,0,0,0-1.472-.847l-.3-2.243a.464.464,0,0,0-.433-.339H8.587a.464.464,0,0,0-.433.339L7.808,4.457A7.331,7.331,0,0,0,6.336,5.3L4.171,4.457a.406.406,0,0,0-.52.169L1.92,7.547a.511.511,0,0,0,.087.55l1.862,1.4c0,.3-.043.55-.043.847s.043.55.043.847l-1.818,1.4a.389.389,0,0,0-.087.55L3.7,16.055a.422.422,0,0,0,.52.169l2.165-.847a6.3,6.3,0,0,0,1.472.847L8.2,18.468a.42.42,0,0,0,.433.339h3.464a.464.464,0,0,0,.433-.339l.347-2.243a7.327,7.327,0,0,0,1.472-.847l2.165.847a.406.406,0,0,0,.52-.169l1.732-2.921a.51.51,0,0,0-.087-.55ZM10.319,13.3a2.964,2.964,0,1,1,0-5.926,2.964,2.964,0,1,1,0,5.926Z" transform="translate(-1.875 -1.875)" fill="#fb78a4"/>
</svg>
