<svg xmlns="http://www.w3.org/2000/svg" width="30" height="30" viewBox="0 0 30 30">
  <path id="Union_65" data-name="Union 65" d="M27.219,30H9.763A9.68,9.68,0,0,1,0,20.238V9.763A9.677,9.677,0,0,1,9.763,0H20.237A9.676,9.676,0,0,1,30,9.763V27.221A2.689,2.689,0,0,1,27.219,30ZM20.173,13.448A1.552,1.552,0,1,0,21.725,15,1.554,1.554,0,0,0,20.173,13.448Zm-5.173,0A1.552,1.552,0,1,0,16.552,15,1.554,1.554,0,0,0,15,13.448Zm-5.173,0A1.552,1.552,0,1,0,11.379,15,1.554,1.554,0,0,0,9.827,13.448Z" transform="translate(0.001 -0.001)" fill="#fb78a4"/>
</svg>
