<svg xmlns="http://www.w3.org/2000/svg" width="30" height="30" viewBox="0 0 30 30">
  <path id="Union_65" data-name="Union 65" d="M9.763,30A9.678,9.678,0,0,1,0,20.237V9.763A9.678,9.678,0,0,1,9.763,0H20.237A9.678,9.678,0,0,1,30,9.763V27.22A2.689,2.689,0,0,1,27.22,30ZM2.069,9.763V20.237a7.612,7.612,0,0,0,7.694,7.694H27.22a.625.625,0,0,0,.711-.711V9.763a7.612,7.612,0,0,0-7.694-7.694H9.763A7.612,7.612,0,0,0,2.069,9.763ZM18.621,15a1.552,1.552,0,1,1,1.551,1.552A1.551,1.551,0,0,1,18.621,15Zm-5.173,0A1.552,1.552,0,1,1,15,16.552,1.551,1.551,0,0,1,13.448,15ZM8.276,15a1.552,1.552,0,1,1,1.551,1.552A1.551,1.551,0,0,1,8.276,15Z" fill="#787878"/>
</svg>
