<svg xmlns="http://www.w3.org/2000/svg" width="29" height="29" viewBox="0 0 29 29">
  <path id="Union_66" data-name="Union 66" d="M1,29a1,1,0,0,1-1-1V24.625c0-2.194,1.6-4.2,4.518-5.661A22.828,22.828,0,0,1,14.5,16.875a22.829,22.829,0,0,1,9.982,2.089C27.4,20.42,29,22.431,29,24.625V28a1,1,0,0,1-1,1Zm4.413-8.248C3.244,21.836,2,23.248,2,24.625V27H27V24.625c0-1.376-1.244-2.788-3.413-3.872A20.819,20.819,0,0,0,14.5,18.875,20.818,20.818,0,0,0,5.413,20.752Zm1.337-13A7.75,7.75,0,1,1,14.5,15.5,7.759,7.759,0,0,1,6.75,7.75Zm2,0A5.75,5.75,0,1,0,14.5,2,5.757,5.757,0,0,0,8.75,7.75Z" fill="#95989a"/>
</svg>
