<svg xmlns="http://www.w3.org/2000/svg" width="29.911" height="30" viewBox="0 0 29.911 30">
  <path id="パス_1" data-name="パス 1" d="M12.985,25.931A3.245,3.245,0,0,0,16.224,22.7h8.1a1.555,1.555,0,0,0,1.457-1.131,1.529,1.529,0,0,0-.486-1.778A6.5,6.5,0,0,1,22.7,14.616V9.767a9.716,9.716,0,0,0-19.433,0v4.849A6.5,6.5,0,0,1,.678,19.789a1.724,1.724,0,0,0-.486,1.778A1.555,1.555,0,0,0,1.65,22.7h8.1a3.245,3.245,0,0,0,3.239,3.233m0,2.069A5.316,5.316,0,0,1,8.1,24.767H1.65a3.609,3.609,0,0,1-3.464-2.7A3.785,3.785,0,0,1-.567,18.135,4.4,4.4,0,0,0,1.2,14.616V9.767A11.777,11.777,0,0,1,21.309,1.453,11.675,11.675,0,0,1,24.77,9.767v4.849a4.414,4.414,0,0,0,1.813,3.556,2.067,2.067,0,0,1,.171.152A4.2,4.2,0,0,1,27.8,19.962a3.292,3.292,0,0,1-.078,2.323,3.614,3.614,0,0,1-3.4,2.482H17.872A5.316,5.316,0,0,1,12.985,28Z" transform="translate(1.935 2)" fill="#95989a"/>
</svg>
