<svg xmlns="http://www.w3.org/2000/svg" width="12.697" height="12.168" viewBox="0 0 12.697 12.168">
  <g id="Group_200" data-name="Group 200" transform="translate(-84 -202.5)">
    <path id="パス_302" data-name="パス 302" d="M11.558,28.5A1.058,1.058,0,1,1,10.5,29.558,1.059,1.059,0,0,1,11.558,28.5Z" transform="translate(77.203 184.052)" fill="#bca674"/>
    <path id="パス_303" data-name="パス 303" d="M28.058,28.5A1.058,1.058,0,1,1,27,29.558,1.059,1.059,0,0,1,28.058,28.5Z" transform="translate(66.523 184.052)" fill="#bca674"/>
    <path id="パス_304" data-name="パス 304" d="M10.284,8.994H5.126A1.585,1.585,0,0,1,3.544,7.716L2.66,3.3q-.005-.022-.009-.045l-.44-2.2H.529A.529.529,0,1,1,.529,0H2.645a.529.529,0,0,1,.519.425l.444,2.22h8.56a.529.529,0,0,1,.52.628l-.846,4.439v0A1.586,1.586,0,0,1,10.284,8.994Z" transform="translate(84 202.5)" fill="#bca674"/>
  </g>
</svg>
