<svg xmlns="http://www.w3.org/2000/svg" width="17.661" height="17.661" viewBox="0 0 17.661 17.661">
  <path id="Icon_awesome-coins" data-name="Icon awesome-coins" d="M0,13.981v1.473c0,1.218,2.967,2.208,6.623,2.208s6.623-.99,6.623-2.208V13.981c-1.425,1-4.029,1.473-6.623,1.473S1.425,14.985,0,13.981ZM11.038,4.415c3.656,0,6.623-.99,6.623-2.208S14.695,0,11.038,0,4.415.99,4.415,2.208,7.382,4.415,11.038,4.415ZM0,10.362v1.78C0,13.36,2.967,14.35,6.623,14.35s6.623-.99,6.623-2.208v-1.78c-1.425,1.173-4.032,1.78-6.623,1.78S1.425,11.535,0,10.362Zm14.35.379c1.977-.383,3.312-1.093,3.312-1.911V7.358a8.471,8.471,0,0,1-3.312,1.19ZM6.623,5.519C2.967,5.519,0,6.754,0,8.279s2.967,2.76,6.623,2.76,6.623-1.235,6.623-2.76S10.28,5.519,6.623,5.519Zm7.565,1.942c2.07-.373,3.474-1.1,3.474-1.942V4.046a11.23,11.23,0,0,1-5.543,1.442A3.863,3.863,0,0,1,14.188,7.461Z" fill="#857552"/>
</svg>
