<svg xmlns="http://www.w3.org/2000/svg" width="18.391" height="14.304" viewBox="0 0 18.391 14.304">
  <path id="Icon_awesome-credit-card" data-name="Icon awesome-credit-card" d="M0,14.022a1.533,1.533,0,0,0,1.533,1.533H16.859a1.533,1.533,0,0,0,1.533-1.533V8.4H0Zm6.13-2.171a.384.384,0,0,1,.383-.383h4.342a.384.384,0,0,1,.383.383v1.277a.384.384,0,0,1-.383.383H6.514a.384.384,0,0,1-.383-.383Zm-4.087,0a.384.384,0,0,1,.383-.383h2.3a.384.384,0,0,1,.383.383v1.277a.384.384,0,0,1-.383.383h-2.3a.384.384,0,0,1-.383-.383ZM18.391,2.783V4.315H0V2.783A1.533,1.533,0,0,1,1.533,1.25H16.859A1.533,1.533,0,0,1,18.391,2.783Z" transform="translate(0 -1.25)" fill="#857552"/>
</svg>
