<svg xmlns="http://www.w3.org/2000/svg" width="14" height="9" viewBox="0 0 14 9">
  <path id="Union_68" data-name="Union 68" d="M2.764,7.5H.3a.3.3,0,1,1,0-.6h2.46a1.8,1.8,0,1,1,0,.6Zm.583-.3A1.218,1.218,0,1,0,4.565,6,1.21,1.21,0,0,0,3.348,7.2Zm4.565.3a.3.3,0,1,1,0-.6H13.7a.3.3,0,1,1,0,.6Zm-.3-5.7a1.828,1.828,0,0,1,3.627-.3H13.7a.3.3,0,1,1,0,.6h-2.46a1.828,1.828,0,0,1-3.627-.3Zm.609,0a1.218,1.218,0,0,0,2.435,0,1.218,1.218,0,0,0-2.435,0ZM.3,2.1a.3.3,0,1,1,0-.6H5.783a.3.3,0,1,1,0,.6Z" fill="#2f2f2f"/>
</svg>
