<svg xmlns="http://www.w3.org/2000/svg" width="30" height="30" viewBox="0 0 30 30">
  <path id="Union_66" data-name="Union 66" d="M1.034,30A1.034,1.034,0,0,1,0,28.966V25.474c0-2.27,1.66-4.35,4.674-5.856A23.615,23.615,0,0,1,15,17.457a23.617,23.617,0,0,1,10.326,2.161C28.34,21.124,30,23.2,30,25.474v3.492A1.034,1.034,0,0,1,28.966,30ZM5.6,21.468c-2.244,1.121-3.531,2.582-3.531,4.006v2.457H27.932V25.474c0-1.424-1.287-2.885-3.531-4.006A21.537,21.537,0,0,0,15,19.526,21.536,21.536,0,0,0,5.6,21.468ZM6.983,8.017A8.017,8.017,0,1,1,15,16.035,8.026,8.026,0,0,1,6.983,8.017Zm2.069,0A5.948,5.948,0,1,0,15,2.069,5.955,5.955,0,0,0,9.052,8.017Z" transform="translate(0 0)" fill="#95989a"/>
</svg>
